<svg width="238" height="91" viewBox="0 0 238 91" fill="none" xmlns="http://www.w3.org/2000/svg">
<path d="M17.7548 81.2522C19.0776 80.7956 19.9486 80.198 20.3677 79.4595C20.8335 78.71 20.9192 77.7042 20.6246 76.4421L17.0901 61.2971C16.7924 60.2329 16.3016 59.6081 15.6175 59.4227C14.9693 59.1797 13.7228 59.2241 11.878 59.5561L11.4993 59.2009L11.0247 54.9495L15.2082 53.2338L15.0446 52.5326C14.1173 48.5594 14.0579 44.9258 14.8665 41.6318C15.7217 38.327 17.3428 35.5581 19.7298 33.3251C22.1168 31.0922 25.1567 29.5448 28.8494 28.683C30.2985 28.3448 31.6346 28.1562 32.8577 28.1172C34.1276 28.0673 35.1404 28.0774 35.8961 28.1474C36.6518 28.2175 37.1341 28.2775 37.3429 28.3273L38.0044 29.5777C37.9514 29.9844 37.8385 30.8733 37.6656 32.2445C37.4818 33.5689 37.2933 35.1902 37.1002 37.1083L36.2542 37.6015C36.0812 37.494 35.6184 37.3062 34.8658 37.0383C34.16 36.7594 33.2259 36.5584 32.0635 36.4354C30.9369 36.2547 29.766 36.3062 28.5506 36.5898C26.9613 36.9607 25.7935 37.5537 25.0472 38.3686C24.3477 39.1726 23.9566 40.3483 23.8741 41.8955C23.8274 43.3851 24.0986 45.392 24.6877 47.9162L25.354 51.0877C27.4575 50.5968 29.3218 50.1371 30.9469 49.7085C32.572 49.2799 33.5895 48.9932 33.9993 48.8483L34.3616 49.1334L34.904 54.6258C34.4724 54.6773 33.4799 54.8596 31.9265 55.1729C30.373 55.4861 28.5679 55.8828 26.5112 56.3628L30.6138 74.2587C30.8538 75.287 31.2442 76.0092 31.7849 76.4252C32.3147 76.7945 33.0236 76.8755 33.9117 76.6682C34.8934 76.4391 35.776 76.2085 36.5598 75.9763C37.3435 75.7441 37.8756 75.5952 38.1561 75.5298L38.5184 75.8149L39.0936 81.4476C38.2413 81.5972 36.7057 81.8816 34.487 82.3009C32.3258 82.7559 30.2403 83.218 28.2303 83.6871C26.5475 84.0799 24.6474 84.5973 22.5299 85.2393C20.4124 85.8814 19.0319 86.3021 18.3884 86.5016L17.7548 81.2522Z" fill="white"/>
<path d="M56.3723 80.9801C51.5723 80.9801 47.7323 79.4681 44.8523 76.4441C42.0203 73.4201 40.6043 69.3641 40.6043 64.2761C40.6043 60.5321 41.3243 57.2681 42.7643 54.4841C44.2523 51.6521 46.3163 49.4921 48.9563 48.0041C51.6443 46.4681 54.7643 45.7001 58.3163 45.7001C63.2603 45.7001 67.1243 47.1641 69.9083 50.0921C72.6923 53.0201 74.0843 57.1241 74.0843 62.4041C74.0843 66.1481 73.3643 69.4361 71.9243 72.2681C70.4843 75.0521 68.4203 77.2121 65.7323 78.7481C63.0443 80.2361 59.9243 80.9801 56.3723 80.9801ZM57.5963 74.5721C59.3243 74.5721 60.5723 73.9001 61.3403 72.5561C62.1563 71.2121 62.5643 69.0281 62.5643 66.0041C62.5643 61.4441 62.0843 58.1321 61.1243 56.0681C60.2123 53.9561 58.7963 52.9001 56.8763 52.9001C55.1483 52.9001 53.8763 53.5721 53.0603 54.9161C52.2923 56.2601 51.9083 58.3961 51.9083 61.3241C51.9083 65.9801 52.3643 69.3641 53.2763 71.4761C54.2363 73.5401 55.6763 74.5721 57.5963 74.5721Z" fill="white"/>
<path d="M100.398 70.9619C101.479 70.8973 102.275 70.6398 102.788 70.1893C103.355 69.6993 103.757 68.8899 103.992 67.7611L105.989 56.5609C106.365 54.5797 106.292 53.1081 105.77 52.1461C105.303 51.1445 104.383 50.5303 103.01 50.3033C101.684 50.0841 99.9323 50.5244 97.7558 51.6242L96.8148 55.9932C95.4183 62.0871 94.634 65.6549 94.4618 66.6968C94.2896 67.7387 94.3104 68.4962 94.5241 68.9694C94.7456 69.3952 95.2352 69.6707 95.9929 69.796L97.5675 69.9832L97.6508 70.3619L96.0123 75.4184C95.4519 75.2771 94.3981 75.03 92.8509 74.6769C91.2959 74.3713 89.7134 74.0854 88.1032 73.8192C86.3984 73.5374 84.5673 73.2834 82.61 73.0572C80.7 72.8389 79.457 72.7064 78.8808 72.6598L80.4483 67.5916C81.8373 67.7239 82.8393 67.5489 83.4541 67.0667C84.069 66.5845 84.486 65.6804 84.7052 64.3544L86.983 50.5734C87.257 48.9159 87.2041 47.7638 86.8245 47.1173C86.4922 46.4785 85.6394 46.0457 84.266 45.8187L83.2004 45.6426L82.9867 45.1694L84.2237 40.7763C87.2777 40.8432 90.3158 40.8588 93.338 40.8232C96.4077 40.7954 98.3804 40.7809 99.2564 40.7797L99.9086 41.6903C99.7669 41.9588 99.5153 42.5983 99.1536 43.6089C98.7998 44.5721 98.4934 45.5431 98.2343 46.5219L98.5425 46.8648C100.348 45.655 102.209 44.5517 104.125 43.5548C106.041 42.558 107.354 42.1182 108.065 42.2357C111.664 42.8305 114.278 44.0896 115.906 46.0129C117.581 47.9439 118.176 50.3776 117.691 53.3137C117.472 54.6397 116.824 57.2329 115.749 61.0931C114.492 65.7506 113.77 68.6476 113.582 69.7842C113.402 70.8734 113.415 71.6783 113.621 72.1988C113.882 72.6798 114.391 72.9829 115.149 73.1082L117.15 73.3659L117.245 73.6735L115.689 78.6707C115.082 78.5216 113.957 78.2627 112.315 77.894C110.713 77.5805 109.083 77.2868 107.425 77.0128C106.288 76.825 104.765 76.6219 102.855 76.4035C100.937 76.2325 99.6669 76.1197 99.0434 76.0653L100.398 70.9619Z" fill="white"/>
<path d="M151.406 86.3969C149.206 86.2119 147.496 85.6346 146.277 84.6651C145.062 83.6477 144.405 82.2919 144.307 80.5977L143.823 80.3403C139.041 83.3583 136.244 84.8331 135.431 84.7647C131.221 84.4109 128.016 82.7204 125.814 79.6932C123.663 76.6223 122.797 72.5996 123.216 67.6251C123.525 63.9421 124.562 60.7779 126.326 58.1323C128.094 55.439 130.405 53.4416 133.26 52.1402C136.167 50.795 139.414 50.2732 143.002 50.5748C144.341 50.6874 145.319 50.7938 145.937 50.8939L146.589 43.1452C146.721 41.5668 146.597 40.4725 146.214 39.8623C145.832 39.2522 145.019 38.8948 143.776 38.7903C143.441 38.7621 143.104 38.7579 142.765 38.7776C142.426 38.7972 142.185 38.801 142.042 38.789L143.044 33.7432C146.281 33.63 149.548 33.447 152.844 33.1943C156.193 32.8978 158.354 32.6941 159.326 32.5832L159.929 34.0068C159.179 34.9071 158.231 39.3071 157.085 47.2069C155.987 55.1107 154.984 64.4675 154.075 75.2774C154.007 76.0905 154.118 76.7742 154.408 77.3285C154.751 77.839 155.233 78.1204 155.855 78.1727C156.476 78.225 157.06 78.1536 157.607 77.9587C158.205 77.72 158.58 77.5588 158.731 77.4752L159.74 79.2219C159.732 79.3176 159.272 79.9291 158.358 81.0565C157.496 82.1401 156.441 83.2316 155.192 84.3308C153.996 85.3863 152.734 86.075 151.406 86.3969ZM139.454 77.2996C140.124 77.3559 140.78 77.2906 141.421 77.1037C142.063 76.9168 142.586 76.7199 142.988 76.5129C143.443 76.2621 143.722 76.0929 143.826 76.0053L145.28 58.7143C145.188 58.6584 144.957 58.5427 144.586 58.367C144.22 58.1435 143.708 57.9319 143.05 57.7321C142.44 57.5363 141.753 57.4062 140.988 57.3419C139.17 57.1891 137.695 57.8358 136.561 59.2819C135.428 60.7281 134.741 62.8861 134.5 65.7559C134.202 69.2955 134.475 72.0641 135.319 74.0618C136.21 76.0635 137.589 77.1428 139.454 77.2996Z" fill="white"/>
<path d="M164.068 63.7717C163.668 62.6403 163.229 61.9044 162.753 61.5638C162.276 61.2233 161.653 61.189 160.883 61.4611C160.476 61.6051 160.099 61.7637 159.753 61.937C159.453 62.0942 159.257 62.1888 159.166 62.2208L157.986 57.369C160.528 56.0629 163.113 54.665 165.743 53.1751C168.373 51.6853 170.063 50.7058 170.814 50.2368L172.016 51.2626C171.903 52.5247 172.313 55.0525 173.247 58.8462C174.165 62.5945 175.344 66.5052 176.784 70.5781C177.952 73.8817 179.758 75.1015 182.202 74.2374C182.88 73.9974 183.526 73.591 184.138 73.0182C184.75 72.4454 185.442 71.6663 186.213 70.6807L181.629 57.7152C181.181 56.4481 180.712 55.6975 180.222 55.4635C179.761 55.1682 178.957 55.1979 177.81 55.5527L176.86 55.8887L175.906 51.0327C178.464 49.7719 181.066 48.4192 183.712 46.9746C186.387 45.4688 188.108 44.504 188.874 44.0802L190.145 45.0819C189.925 46.3308 190.331 49.0637 191.364 53.2806C192.426 57.4363 193.829 61.9805 195.573 66.9133C195.845 67.6826 196.273 68.2441 196.856 68.5979C197.423 68.9065 198.046 68.9407 198.725 68.7007C199.313 68.4927 199.876 68.141 200.414 67.6454C200.951 67.1499 201.212 66.8795 201.196 66.8342L202.834 68.0115C202.765 68.3923 202.53 69.2391 202.129 70.552C201.728 71.8648 201.153 73.2643 200.406 74.7505C199.659 76.2366 198.806 77.3527 197.848 78.0987C193.503 79.6348 190.459 78.8018 188.716 75.5997L187.985 75.4763C186.978 77.6655 186.039 79.4739 185.169 80.9015C184.283 82.2839 183.614 83.055 183.161 83.2151C179.45 84.5271 176.358 84.7804 173.884 83.9751C171.439 83.1084 169.713 81.2496 168.705 78.3986L164.068 63.7717Z" fill="white"/>
<path d="M224.36 76.864C219.032 76.864 214.88 75.376 211.904 72.4C208.976 69.376 207.512 65.2 207.512 59.872C207.512 56.368 208.256 53.224 209.744 50.44C211.232 47.656 213.296 45.496 215.936 43.96C218.624 42.376 221.672 41.584 225.08 41.584C233.624 41.584 237.896 45.976 237.896 54.76C237.896 56.248 237.728 57.712 237.392 59.152L236.528 59.944H218.6C218.696 62.824 219.464 65.032 220.904 66.568C222.392 68.056 224.408 68.8 226.952 68.8C229.496 68.8 232.304 68.104 235.376 66.712L236.024 67L237.32 71.32C235.496 72.712 233.36 73.984 230.912 75.136C228.464 76.288 226.28 76.864 224.36 76.864ZM226.592 54.832C227.072 54.736 227.384 54.616 227.528 54.472C227.672 54.28 227.744 53.896 227.744 53.32C227.744 49.96 226.448 48.28 223.856 48.28C220.448 48.28 218.648 50.632 218.456 55.336L226.592 54.832Z" fill="white"/>
</svg>
